<?xml version="1.0" encoding="utf-8"?>
<!-- Generator: Adobe Illustrator 22.0.1, SVG Export Plug-In . SVG Version: 6.00 Build 0)  -->
<svg version="1.1" id="Layer_1" xmlns="http://www.w3.org/2000/svg" xmlns:xlink="http://www.w3.org/1999/xlink" x="0px" y="0px"
	 viewBox="0 0 241.3 94" style="enable-background:new 0 0 241.3 94;" xml:space="preserve">
<style type="text/css">
	.st0{fill:#1C4923;}
	.st1{fill:#1B1C1C;}
	.st2{fill:#FFFFFF;}
</style>
<g>
	<path class="st0" d="M36.5,11.5c-19.9,0-36,16.1-36,36s16.1,36,36,36s36-16.1,36-36S56.4,11.5,36.5,11.5z M36.5,72.4
		c-13.8,0-24.9-11.2-24.9-24.9s11.2-24.9,24.9-24.9s24.9,11.2,24.9,24.9S50.3,72.4,36.5,72.4z"/>
	<path class="st0" d="M36.5,23.3c-13.3,0-24.1,10.8-24.1,24.1c0,3.4,0.7,6.6,2,9.5c0,0,0,0,0,0c0,0.1,0.1,0.2,0.1,0.2
		c0,0.1,0.1,0.2,0.1,0.2c0,0,0,0.1,0,0.1c0,0,0,0,0,0c0.4,0.9,0.9,1.8,1.5,2.7c0,0,0,0,0,0c0.1,0.2,0.2,0.4,0.4,0.6c0,0,0,0,0,0
		c4.3,6.5,11.7,10.7,20,10.7c10.4,0,19.3-6.7,22.7-16l0,0c0.3-0.8,0.5-1.6,0.7-2.5c0,0,0,0,0,0c0,0,0,0,0,0c0-0.2,0.1-0.4,0.1-0.6
		c0,0,0-0.1,0-0.1c0,0,0,0,0,0c0.2-0.8,0.3-1.7,0.4-2.5c0,0,0,0,0,0c0,0,0-0.1,0-0.1c0-0.3,0-0.5,0.1-0.8c0,0,0,0,0,0c0,0,0,0,0,0
		c0-0.5,0-1,0-1.5C60.6,34.1,49.8,23.3,36.5,23.3z M36.5,70.3c-6.5,0-12.4-2.7-16.6-7.1c3-1.5,7.2-2.7,11.5-1.2
		c2,0.7,3.6,1.8,4.8,2.9c0.4-1,3.6-7.5,11.3-9.7c4.1-1.2,7.8-0.6,10.5,0.3C54.7,64.1,46.3,70.3,36.5,70.3z M58.1,55
		C44.1,48.4,36,62.7,36,62.7c-1-0.7-4.8-3.2-10.1-2.7c-2.7,0.3-4.9,1.3-6.6,2.4c-0.6-0.7-1.2-1.4-1.7-2.2c1.2-0.7,2.3-1.2,3.1-1.5
		c0.9-0.4,1.8-0.8,2.9-1c0.8-0.2,2.6-0.6,4.6-0.4c3.7,0.3,6.4,2.2,7.5,3.2c2.9-5.9,8.8-9.7,15.3-9.8c3.1-0.1,5.8,0.8,8,1.9
		C58.7,53.3,58.4,54.2,58.1,55z M59,51.6c-3.7-2.2-7.9-3.1-12.1-2.3c-7.7,1.5-11.3,8.2-11.8,9.2c0,0-6.8-7.4-18.1,1
		c-0.5-0.9-1-1.8-1.4-2.7c3.2-2.3,7.9-4.7,13.3-3.7c2.5,0.5,4.6,1.5,6.1,2.6c0.5-1,3.9-7.2,11.1-9c4.5-1.1,9.3-0.2,13.3,2.3
		C59.3,49.9,59.2,50.8,59,51.6z M59.4,48c-3-2.2-6.8-3.4-10.7-3.3c-9.4,0.4-13.9,8.7-14.1,9.1c-1.2-0.8-3.7-2.2-7.2-2.4
		c-0.1,0-0.3,0-0.4,0c0.3-1.6,0.9-3.8,2.4-6.1c0.9-1.5,2.9-4.7,7.1-6.5c4.3-1.9,8.3-1.2,9.7-0.9c-1.1-0.4-2.8-1-5-1
		c-0.2,0-0.7,0-1.4,0.1c1.5-1.1,2.4-2.9,2.4-4.9c0-3.4-2.8-6.2-6.2-6.2c-3.4,0-6.2,2.8-6.2,6.2c0,3.1,2.3,5.6,5.2,6.1
		c-0.8,0.4-1.7,0.8-2.5,1.4c-4.8,3.5-5.6,9.3-5.7,11.9c-3.2,0-5.6,1.1-7.1,1.8C18,54,16.5,55,15.3,56.1c-1.1-2.7-1.7-5.6-1.7-8.7
		c0-12.6,10.3-22.9,22.9-22.9c12.6,0,22.9,10.3,22.9,22.9C59.4,47.6,59.4,47.8,59.4,48z M36,37c-2.7,0-5-2.2-5-5s2.2-5,5-5
		s5,2.2,5,5S38.7,37,36,37z"/>
</g>
<g>
	<polygon class="st1" points="84.2,33.1 81.8,32.9 81.8,17.4 93.4,34.9 95.4,34.9 95.4,15.5 97.8,15.3 97.8,13.5 90.9,13.5 
		90.9,15.3 93.2,15.5 93.2,31 81.7,13.5 77.3,13.5 77.3,15.3 79.6,15.5 79.6,32.9 77.3,33.1 77.3,34.9 84.2,34.9 	"/>
	<path class="st1" d="M108.6,34.3c0.8-0.4,1.4-0.9,1.9-1.5c0,0.2,0,0.3,0,0.5c0,0.4,0.1,0.9,0.2,1.4l0,0.2h3.5v-1.8l-1.6-0.1
		c0-0.2,0-0.4-0.1-0.6c0-0.3,0-0.6,0-0.9v-7.6c0-1.7-0.6-3-1.7-3.9c-1.1-0.9-2.5-1.4-4.3-1.4c-1.1,0-2.2,0.2-3.3,0.5
		c-1,0.4-1.9,0.8-2.6,1.4l-0.1,0.1l0,3.4h1.9l0.2-2.2c0.4-0.3,1-0.6,1.6-0.8c0.7-0.2,1.4-0.3,2.3-0.3c1.2,0,2.2,0.3,2.8,0.9
		c0.7,0.6,1,1.4,1,2.4v1.8h-3.2c-2.1,0-3.9,0.4-5.2,1.3c-1.3,0.9-2,2.1-2,3.6c0,1.4,0.4,2.5,1.3,3.4c0.9,0.8,2.1,1.2,3.7,1.2
		C106.5,35.2,107.6,34.9,108.6,34.3z M102.5,30.6c0-0.9,0.4-1.6,1.3-2.2c0.9-0.6,2.1-0.9,3.6-0.9h3.2v2.8c-0.4,0.8-1,1.5-1.9,2.1
		c-0.9,0.5-2,0.8-3.1,0.8c-0.9,0-1.7-0.2-2.2-0.7C102.7,32,102.5,31.4,102.5,30.6z"/>
	<path class="st1" d="M119,30.6c0,1.5,0.3,2.7,1,3.4c0.7,0.7,1.6,1.1,2.7,1.1c0.4,0,0.8,0,1.3-0.1c0.4-0.1,0.8-0.2,1.1-0.3l0.2-0.1
		l-0.3-1.7l-0.2,0c-0.3,0.1-0.6,0.1-0.9,0.1c-0.3,0-0.5,0-0.8,0c-0.5,0-1-0.2-1.3-0.5c-0.3-0.4-0.5-1-0.5-2v-9.8h3.4v-1.9h-3.4v-4
		H119v4h-2.7v1.9h2.7V30.6z"/>
	<rect x="130" y="12" class="st1" width="2.2" height="2.9"/>
	<polygon class="st1" points="134.5,33.1 132.2,32.9 132.2,18.9 127.6,18.9 127.6,20.6 130,20.8 130,32.9 127.6,33.1 127.6,34.9 
		134.5,34.9 	"/>
	<path class="st1" d="M144.5,35.2c2.1,0,3.9-0.8,5.2-2.3c1.3-1.5,1.9-3.4,1.9-5.8v-0.5c0-2.3-0.7-4.3-1.9-5.8
		c-1.3-1.5-3-2.3-5.2-2.3c-2.1,0-3.9,0.8-5.2,2.3c-1.3,1.5-1.9,3.4-1.9,5.8v0.5c0,2.3,0.7,4.3,1.9,5.8
		C140.6,34.4,142.4,35.2,144.5,35.2z M139.6,26.6c0-1.7,0.4-3.2,1.3-4.3c0.9-1.2,2-1.7,3.6-1.7c1.5,0,2.7,0.6,3.6,1.7
		c0.9,1.2,1.3,2.6,1.3,4.3v0.5c0,1.7-0.4,3.2-1.3,4.4c-0.9,1.2-2,1.7-3.5,1.7c-1.6,0-2.7-0.6-3.6-1.7c-0.9-1.2-1.3-2.6-1.3-4.4V26.6
		z"/>
	<path class="st1" d="M160.9,33.1l-2.3-0.2v-9.1c0.3-1,0.8-1.8,1.5-2.4c0.7-0.6,1.6-0.9,2.8-0.9c1.2,0,2,0.3,2.6,1
		c0.6,0.7,0.9,1.9,0.9,3.6v7.7l-2.3,0.2v1.7h6.9v-1.7l-2.3-0.2v-7.7c0-2.2-0.5-3.9-1.4-5c-0.9-1.1-2.3-1.6-4-1.6
		c-1.2,0-2.2,0.3-3.1,0.8c-0.7,0.4-1.2,0.9-1.7,1.6l-0.1-2.1H154v1.8l2.3,0.2v12.1l-2.3,0.2v1.7h6.9V33.1z"/>
	<path class="st1" d="M180.8,25.6c-2.1,0-3.9,0.4-5.2,1.3c-1.3,0.9-2,2.1-2,3.6c0,1.4,0.4,2.5,1.3,3.4c0.9,0.8,2.1,1.2,3.7,1.2
		c1.2,0,2.4-0.3,3.3-0.8c0.8-0.4,1.4-0.9,1.9-1.5c0,0.2,0,0.3,0,0.5c0,0.4,0.1,0.9,0.2,1.4l0,0.2h3.5v-1.8l-1.6-0.1
		c0-0.2,0-0.4-0.1-0.6c0-0.3,0-0.6,0-0.9v-7.6c0-1.7-0.6-3-1.7-3.9c-1.1-0.9-2.5-1.4-4.3-1.4c-1.1,0-2.2,0.2-3.3,0.5
		c-1,0.4-1.9,0.8-2.6,1.4l-0.1,0.1l0,3.4h1.9l0.2-2.2c0.4-0.3,1-0.6,1.6-0.8c0.7-0.2,1.4-0.3,2.3-0.3c1.2,0,2.2,0.3,2.8,0.9
		c0.7,0.6,1,1.4,1,2.4v1.8H180.8z M184,30.3c-0.4,0.8-1,1.5-1.9,2.1c-0.9,0.5-2,0.8-3.1,0.8c-0.9,0-1.7-0.2-2.2-0.7
		c-0.5-0.5-0.8-1.1-0.8-1.8c0-0.9,0.4-1.6,1.3-2.2c0.9-0.6,2.1-0.9,3.6-0.9h3.2V30.3z"/>
	<polygon class="st1" points="196.8,33.1 194.4,32.9 194.4,12 189.9,12 189.9,13.8 192.2,14 192.2,32.9 189.9,33.1 189.9,34.9 
		196.8,34.9 	"/>
	<path class="st1" d="M91.4,48.3c0-2.2-0.7-4.1-2.1-5.5c-1.4-1.4-3.2-2.1-5.3-2.1h-7v1.5l1.9,0.2v14.1L77,56.6v1.5h7
		c2.1,0,3.9-0.7,5.3-2.1c1.4-1.4,2.1-3.3,2.1-5.5V48.3z M89.5,50.5c0,1.7-0.5,3.1-1.5,4.3c-1,1.1-2.3,1.7-3.9,1.7h-3.3v-14H84
		c1.6,0,2.9,0.6,3.9,1.7c1,1.1,1.6,2.5,1.6,4.2V50.5z"/>
	<rect x="95.8" y="39.5" class="st1" width="1.9" height="2.5"/>
	<polygon class="st1" points="97.7,45 93.9,45 93.9,46.5 95.8,46.7 95.8,56.4 93.9,56.6 93.9,58.1 99.5,58.1 99.5,56.6 97.7,56.4 	
		"/>
	<path class="st1" d="M110.7,46.5c-0.4-0.5-0.8-0.8-1.3-1.1c-0.7-0.4-1.5-0.6-2.4-0.6c-1.6,0-2.9,0.6-3.8,1.9
		c-0.9,1.2-1.3,2.9-1.3,5v0.2c0,1.9,0.4,3.5,1.3,4.6c0.9,1.2,2.2,1.8,3.7,1.8c0.9,0,1.7-0.2,2.4-0.5c0.5-0.2,0.9-0.6,1.2-1v0.8
		c0,1.2-0.3,2.1-0.8,2.8c-0.5,0.6-1.4,1-2.5,1c-0.6,0-1.2-0.1-1.7-0.2c-0.5-0.1-1-0.3-1.5-0.5l-0.3-0.1l-0.5,1.7l0.2,0.1
		c0.5,0.3,1.1,0.5,1.9,0.6c0.7,0.1,1.4,0.2,2,0.2c1.6,0,2.9-0.5,3.8-1.5c0.9-1,1.4-2.3,1.4-4V45h-1.7L110.7,46.5z M110.6,54.5
		c-0.3,0.6-0.7,1.2-1.3,1.5c-0.6,0.4-1.3,0.6-2.1,0.6c-1.1,0-2-0.4-2.5-1.2c-0.6-0.9-0.9-2-0.9-3.5v-0.2c0-1.5,0.3-2.8,0.9-3.8
		c0.6-0.9,1.4-1.4,2.5-1.4c0.9,0,1.6,0.2,2.1,0.6c0.5,0.4,0.9,1,1.2,1.6V54.5z"/>
	<rect x="117.4" y="39.5" class="st1" width="1.9" height="2.5"/>
	<polygon class="st1" points="121.2,56.6 119.3,56.4 119.3,45 115.5,45 115.5,46.5 117.4,46.7 117.4,56.4 115.5,56.6 115.5,58.1 
		121.2,58.1 	"/>
	<path class="st1" d="M130.2,58l0.2-0.1l-0.3-1.5l-0.2,0c-0.3,0-0.5,0.1-0.7,0.1c-0.2,0-0.4,0-0.6,0c-0.4,0-0.7-0.1-1-0.4
		c-0.3-0.3-0.4-0.8-0.4-1.6v-7.9h2.8V45h-2.8v-3.2h-1.9V45h-2.2v1.6h2.2v7.9c0,1.3,0.3,2.2,0.8,2.8c0.5,0.6,1.3,0.9,2.2,0.9
		c0.3,0,0.7,0,1-0.1C129.7,58.2,130,58.1,130.2,58z"/>
	<path class="st1" d="M132.9,46.4l0,2.8h1.6l0.1-1.8c0.3-0.3,0.8-0.5,1.3-0.7c0.5-0.2,1.2-0.3,1.8-0.3c1,0,1.7,0.2,2.2,0.7
		c0.5,0.5,0.8,1.1,0.8,1.9v1.4h-2.5c-1.8,0-3.2,0.4-4.2,1.1c-1.1,0.7-1.6,1.7-1.6,3c0,1.1,0.4,2.1,1.1,2.8c0.7,0.7,1.7,1,3,1
		c1,0,1.9-0.2,2.7-0.7c0.6-0.3,1.1-0.7,1.5-1.2c0,0.1,0,0.2,0,0.3c0,0.3,0.1,0.7,0.2,1.1l0,0.2h2.9v-1.5l-1.3-0.1c0-0.2,0-0.3,0-0.5
		c0-0.2,0-0.5,0-0.7v-6.2c0-1.4-0.5-2.5-1.4-3.2c-0.9-0.7-2.1-1.1-3.5-1.1c-0.9,0-1.8,0.1-2.7,0.4C134.3,45.5,133.6,45.9,132.9,46.4
		L132.9,46.4z M140.8,54.3c-0.3,0.7-0.8,1.2-1.5,1.6c-0.7,0.4-1.6,0.7-2.5,0.7c-0.8,0-1.3-0.2-1.8-0.6c-0.4-0.4-0.6-0.8-0.6-1.4
		c0-0.7,0.3-1.3,1-1.8c0.7-0.5,1.7-0.7,2.9-0.7h2.5V54.3z"/>
	<polygon class="st1" points="151.2,56.6 149.3,56.4 149.3,39.5 145.5,39.5 145.5,41 147.4,41.1 147.4,56.4 145.5,56.6 145.5,58.1 
		151.2,58.1 	"/>
	<polygon class="st1" points="169.5,56.4 163,56.4 163,42.3 164.9,42.2 164.9,40.7 159.2,40.7 159.2,42.2 161.1,42.3 161.1,56.4 
		159.2,56.6 159.2,58.1 171.3,58.1 171.3,54 169.6,54 	"/>
	<polygon class="st1" points="177.3,45 173.5,45 173.5,46.5 175.4,46.7 175.4,56.4 173.5,56.6 173.5,58.1 179.2,58.1 179.2,56.6 
		177.3,56.4 	"/>
	<rect x="175.4" y="39.5" class="st1" width="1.9" height="2.5"/>
	<path class="st1" d="M187.7,44.8c-0.9,0-1.8,0.2-2.4,0.6c-0.5,0.3-0.9,0.6-1.2,1v-7h-3.8V41l1.9,0.2v16.9h1.7l0.1-1.4
		c0.4,0.4,0.8,0.8,1.3,1.1c0.7,0.4,1.5,0.6,2.5,0.6c1.6,0,2.8-0.6,3.7-1.8c0.9-1.2,1.3-2.7,1.3-4.6v-0.2c0-2-0.4-3.7-1.3-5
		C190.5,45.4,189.3,44.8,187.7,44.8z M190.8,51.9c0,1.5-0.3,2.6-0.9,3.5c-0.6,0.8-1.4,1.2-2.5,1.2c-0.9,0-1.6-0.2-2.2-0.6
		c-0.6-0.4-1-0.9-1.3-1.6v-5.6c0.3-0.7,0.7-1.3,1.2-1.7c0.5-0.4,1.3-0.7,2.2-0.7c1.1,0,1.9,0.5,2.5,1.4c0.6,1,0.9,2.2,0.9,3.8V51.9z
		"/>
	<path class="st1" d="M202.7,44.8c-0.2,0-0.4,0-0.6,0c-0.9,0-1.7,0.2-2.3,0.7c-0.4,0.3-0.8,0.7-1.1,1.2l-0.1-1.6H195v1.5l1.9,0.2
		v9.7l-1.9,0.2v1.5h5.7v-1.5l-1.9-0.2v-7.2c0.2-0.8,0.6-1.4,1.1-1.9c0.5-0.4,1.2-0.7,2-0.7l1.3,0.1l0.2-1.8l-0.2-0.1
		C203,44.9,202.9,44.9,202.7,44.8z"/>
	<path class="st1" d="M215.3,56c0-0.2,0-0.5,0-0.7v-6.2c0-1.4-0.5-2.5-1.4-3.2c-0.9-0.7-2.1-1.1-3.5-1.1c-0.9,0-1.8,0.1-2.7,0.4
		c-0.8,0.3-1.6,0.7-2.2,1.1l-0.1,0.1l0,2.8h1.6l0.1-1.8c0.3-0.3,0.8-0.5,1.3-0.7c0.5-0.2,1.2-0.3,1.8-0.3c1,0,1.7,0.2,2.2,0.7
		c0.5,0.5,0.8,1.1,0.8,1.9v1.4h-2.5c-1.8,0-3.2,0.4-4.2,1.1c-1.1,0.7-1.6,1.7-1.6,3c0,1.1,0.4,2.1,1.1,2.8c0.7,0.7,1.7,1,3,1
		c1,0,1.9-0.2,2.7-0.7c0.6-0.3,1.1-0.7,1.5-1.2c0,0.1,0,0.2,0,0.3c0,0.3,0.1,0.7,0.2,1.1l0,0.2h2.9v-1.5l-1.3-0.1
		C215.3,56.3,215.3,56.2,215.3,56z M213.4,54.3c-0.3,0.7-0.8,1.2-1.5,1.6c-0.7,0.4-1.6,0.7-2.5,0.7c-0.8,0-1.3-0.2-1.8-0.6
		c-0.4-0.4-0.6-0.8-0.6-1.4c0-0.7,0.3-1.3,1-1.8c0.7-0.5,1.7-0.7,2.9-0.7h2.5V54.3z"/>
	<path class="st1" d="M226,44.8c-0.2,0-0.4,0-0.6,0c-0.9,0-1.7,0.2-2.3,0.7c-0.4,0.3-0.8,0.7-1.1,1.2l-0.1-1.6h-3.6v1.5l1.9,0.2v9.7
		l-1.9,0.2v1.5h5.7v-1.5l-1.9-0.2v-7.2c0.2-0.8,0.6-1.4,1.1-1.9c0.5-0.4,1.2-0.7,2-0.7l1.3,0.1l0.2-1.8l-0.2-0.1
		C226.4,44.9,226.2,44.9,226,44.8z"/>
	<path class="st1" d="M236,45v1.5l1.4,0.1l-3.1,8.6l-0.3-0.9l-2.9-7.7l1.4-0.1V45h-4.8v1.5l1.4,0.1l4.4,11l-0.6,1.6
		c-0.3,0.7-0.6,1.2-0.9,1.6c-0.3,0.4-0.7,0.5-1.3,0.5c-0.1,0-0.2,0-0.4,0c-0.2,0-0.3,0-0.4,0l-0.3,0l-0.2,1.6l0.2,0.1
		c0.1,0,0.3,0.1,0.6,0.1c0.2,0,0.5,0.1,0.6,0.1c1.1,0,1.9-0.3,2.5-1c0.5-0.6,1-1.4,1.3-2.2l5-13.3l1.3-0.1V45H236z"/>
	<path class="st1" d="M83,69.6c-1.7,0-3.1,0.6-4.2,1.8c-1,1.2-1.6,2.8-1.6,4.7v0.4c0,1.9,0.5,3.5,1.6,4.7c1,1.2,2.5,1.8,4.2,1.8
		c1.7,0,3.1-0.6,4.2-1.8c1-1.2,1.6-2.8,1.6-4.7v-0.4c0-1.9-0.5-3.5-1.6-4.7C86.2,70.3,84.8,69.6,83,69.6z M86.9,76.5
		c0,1.4-0.4,2.5-1,3.5c-0.7,0.9-1.6,1.4-2.8,1.4c-1.2,0-2.2-0.4-2.8-1.4c-0.7-0.9-1-2.1-1-3.5v-0.4c0-1.4,0.4-2.5,1-3.5
		c0.7-0.9,1.6-1.4,2.8-1.4c1.2,0,2.1,0.5,2.8,1.4c0.7,0.9,1,2.1,1,3.5V76.5z"/>
	<path class="st1" d="M97.4,64.2c-0.3,0-0.5-0.1-0.8-0.1c-1.2,0-2.1,0.4-2.8,1.1c-0.7,0.7-1,1.8-1,3.1v1.6h-2.1v1.6h2.1v9.7
		l-1.9,0.1v1.5h5.6v-1.5l-1.9-0.1v-9.7h3v-1.6h-3v-1.6c0-0.8,0.2-1.4,0.5-1.8c0.4-0.4,0.9-0.6,1.5-0.6c0.2,0,0.5,0,0.6,0
		c0.2,0,0.4,0.1,0.5,0.1l0.3,0.1l0.2-1.6l-0.2-0.1C97.9,64.3,97.7,64.2,97.4,64.2z"/>
	<polygon class="st1" points="105.7,67.1 107.6,67.2 107.6,81.1 105.7,81.3 105.7,82.8 111.3,82.8 111.3,81.3 109.5,81.1 
		109.5,67.2 111.3,67.1 111.3,65.6 105.7,65.6 	"/>
	<path class="st1" d="M125.1,75c0-1.8-0.4-3.2-1.1-4c-0.8-0.9-1.9-1.3-3.3-1.3c-1,0-1.8,0.2-2.5,0.7c-0.5,0.3-0.9,0.7-1.3,1.2
		l-0.1-1.6h-3.6v1.5l1.9,0.1v9.6l-1.9,0.1v1.5h5.6v-1.5l-1.9-0.1v-7.2c0.3-0.8,0.7-1.4,1.2-1.9c0.6-0.5,1.3-0.7,2.2-0.7
		c0.9,0,1.6,0.3,2.1,0.8c0.5,0.5,0.7,1.5,0.7,2.9v6.2l-1.9,0.1v1.5h5.6v-1.5l-1.9-0.1V75z"/>
	<path class="st1" d="M139.4,64.4h-3.8v1.5l1.9,0.1v5.2c-0.4-0.4-0.8-0.7-1.2-1c-0.7-0.4-1.5-0.6-2.4-0.6c-1.6,0-2.8,0.6-3.7,1.9
		c-0.9,1.2-1.3,2.9-1.3,4.9v0.2c0,1.9,0.4,3.4,1.3,4.6c0.9,1.2,2.1,1.8,3.7,1.8c0.9,0,1.7-0.2,2.4-0.6c0.5-0.3,0.9-0.6,1.3-1
		l0.1,1.3h3.6v-1.5l-1.9-0.1V64.4z M137.5,79.3c-0.3,0.6-0.7,1.1-1.3,1.5c-0.5,0.4-1.2,0.6-2.1,0.6c-1.1,0-1.9-0.4-2.5-1.2
		c-0.6-0.8-0.9-2-0.9-3.4v-0.2c0-1.5,0.3-2.8,0.9-3.7c0.6-0.9,1.4-1.4,2.5-1.4c0.9,0,1.6,0.2,2.1,0.6c0.5,0.4,0.9,0.9,1.2,1.6V79.3z
		"/>
	<polygon class="st1" points="146.9,69.9 143.1,69.9 143.1,71.4 145,71.5 145,81.1 143.1,81.3 143.1,82.8 148.7,82.8 148.7,81.3 
		146.9,81.1 	"/>
	<rect x="145" y="64.4" class="st1" width="1.9" height="2.4"/>
	<path class="st1" d="M161.1,80.8c0-0.2,0-0.5,0-0.7v-6.1c0-1.4-0.5-2.4-1.3-3.2c-0.9-0.7-2-1.1-3.5-1.1c-0.9,0-1.8,0.1-2.6,0.4
		c-0.8,0.3-1.5,0.7-2.1,1.1l-0.1,0.1l0,2.8h1.6l0.1-1.8c0.3-0.3,0.8-0.5,1.3-0.7c0.5-0.2,1.2-0.3,1.8-0.3c1,0,1.7,0.2,2.2,0.7
		c0.5,0.5,0.8,1.1,0.8,1.9v1.4h-2.5c-1.7,0-3.1,0.4-4.2,1.1c-1.1,0.7-1.6,1.7-1.6,2.9c0,1.1,0.4,2.1,1.1,2.7c0.7,0.7,1.7,1,3,1
		c1,0,1.9-0.2,2.7-0.7c0.6-0.3,1.1-0.7,1.5-1.2c0,0.1,0,0.2,0,0.3c0,0.3,0.1,0.7,0.2,1.1l0,0.2h2.9v-1.5l-1.3-0.1
		C161.1,81.1,161.1,80.9,161.1,80.8z M159.2,79c-0.3,0.7-0.8,1.2-1.5,1.6c-0.7,0.4-1.6,0.7-2.5,0.7c-0.7,0-1.3-0.2-1.7-0.6
		c-0.4-0.4-0.6-0.8-0.6-1.4c0-0.7,0.3-1.3,1-1.7c0.7-0.5,1.7-0.7,2.8-0.7h2.5V79z"/>
</g>
<g>
	<polygon class="st2" points="10.9,59.6 11.3,60.1 11.7,59.9 11,58.1 10.5,58.3 10.7,58.9 7.2,60.2 7.2,60.2 10.2,56.2 10,55.5 
		5.4,57.3 5,56.7 4.6,56.9 4.8,57.5 5.3,58.7 5.8,58.6 5.6,58 9.1,56.6 9.1,56.6 6,60.7 6.3,61.4 6.5,61.9 7,61.8 6.9,61.2 	"/>
	<path class="st2" d="M6.5,52.4l0.5-0.1l0.1,0.8c0.1,0.5,0.3,0.9,0.6,1.2s0.6,0.4,1,0.3c0.4-0.1,0.6-0.2,0.8-0.5
		c0.2-0.3,0.2-0.6,0.1-1c0-0.2-0.2-0.5-0.3-0.6c-0.2-0.2-0.3-0.3-0.6-0.4c0.1,0,0.2,0,0.3-0.1c0.1,0,0.2-0.1,0.3-0.1l-0.2-1
		l-0.5,0.1l0,0.3c0,0-0.1,0-0.1,0c0,0-0.1,0-0.2,0l-1.9,0.4c-0.4,0.1-0.7,0.3-0.9,0.6c-0.2,0.3-0.2,0.7-0.1,1.2
		c0.1,0.3,0.2,0.6,0.3,0.8c0.1,0.2,0.3,0.4,0.5,0.6l0.8-0.2l-0.1-0.6l-0.4,0C6.2,54.1,6.1,54,6,53.9c-0.1-0.1-0.1-0.3-0.2-0.5
		c-0.1-0.3,0-0.5,0.1-0.7C6,52.6,6.2,52.5,6.5,52.4z M8.1,52.1c0.2,0.1,0.3,0.2,0.5,0.4c0.2,0.2,0.3,0.4,0.3,0.6c0,0.2,0,0.4,0,0.5
		c-0.1,0.1-0.2,0.2-0.4,0.2c-0.2,0-0.4,0-0.6-0.2c-0.2-0.1-0.3-0.4-0.3-0.7l-0.2-0.8L8.1,52.1z"/>
	<path class="st2" d="M4.9,50.7l0.6,0l0-0.6l2.5-0.2c0.4,0,0.7-0.1,0.8-0.3C8.9,49.3,9,49.1,9,48.8c0-0.1,0-0.3-0.1-0.4
		c0-0.1-0.1-0.2-0.1-0.3l-0.5,0.1c0,0.1,0,0.1,0,0.2c0,0.1,0,0.2,0,0.2c0,0.1,0,0.2-0.1,0.3C8.2,49,8,49.1,7.9,49.1l-2.5,0.2
		l-0.1-0.8l-0.6,0l0.1,0.8l-1,0.1l0,0.7l1-0.1L4.9,50.7z"/>
	<polygon class="st2" points="5.3,46.8 8.3,46.9 8.4,47.5 8.9,47.5 8.9,45.5 8.4,45.5 8.3,46.1 4.8,46 4.7,47.4 5.2,47.4 	"/>
	
		<rect x="3" y="46" transform="matrix(2.963424e-02 -0.9996 0.9996 2.963424e-02 -43.1106 48.321)" class="st2" width="0.7" height="0.8"/>
	<path class="st2" d="M6.8,44.7L6.8,44.7c0.7,0.1,1.2,0,1.6-0.2c0.4-0.3,0.7-0.7,0.8-1.2c0.1-0.6,0-1-0.4-1.4
		c-0.3-0.4-0.8-0.6-1.4-0.7l-0.1,0c-0.6-0.1-1.1,0-1.6,0.3C5.4,41.6,5.1,42,5,42.6c-0.1,0.6,0,1,0.4,1.4C5.8,44.4,6.2,44.6,6.8,44.7
		z M5.6,42.7c0.1-0.4,0.2-0.6,0.5-0.7c0.3-0.1,0.7-0.2,1.1-0.1l0.1,0c0.4,0.1,0.8,0.2,1,0.4c0.3,0.2,0.4,0.5,0.3,0.9
		c-0.1,0.4-0.2,0.6-0.5,0.7C7.8,44,7.5,44.1,7,44l-0.1,0c-0.4-0.1-0.8-0.2-1-0.4C5.7,43.3,5.6,43,5.6,42.7z"/>
	<path class="st2" d="M6.4,39.3l2.8,0.9l-0.1,0.6L9.5,41l0.6-1.9l-0.5-0.1l-0.3,0.6l-2.3-0.8c-0.1-0.2-0.2-0.3-0.3-0.5
		c0-0.2,0-0.4,0-0.6c0.1-0.3,0.2-0.5,0.4-0.6c0.2-0.1,0.5-0.1,0.8,0l1.9,0.6l-0.1,0.6l0.5,0.1l0.6-1.9l-0.5-0.1L10.2,37l-1.9-0.6
		c-0.5-0.2-0.9-0.2-1.3,0c-0.3,0.2-0.6,0.4-0.7,0.9c-0.1,0.3-0.1,0.5,0,0.7c0,0.2,0.2,0.5,0.3,0.6L6,38.5l-0.4,1.2l0.5,0.2L6.4,39.3
		z"/>
	<path class="st2" d="M12.2,33c0,0-0.1,0-0.1-0.1c0,0-0.1,0-0.1-0.1L10.2,32c-0.4-0.2-0.8-0.2-1.1-0.1c-0.3,0.1-0.6,0.4-0.8,0.8
		C8.1,33,8,33.3,8,33.6c0,0.3,0,0.5,0,0.8l0.7,0.4L9,34.2l-0.3-0.3c0-0.1,0-0.3,0-0.4c0-0.1,0.1-0.3,0.2-0.5
		c0.1-0.2,0.3-0.4,0.5-0.5c0.2-0.1,0.4,0,0.6,0.1l0.4,0.2l-0.4,0.7c-0.3,0.5-0.4,0.9-0.3,1.3c0,0.4,0.2,0.7,0.6,0.8
		c0.3,0.2,0.7,0.2,0.9,0.1c0.3-0.1,0.5-0.3,0.7-0.7c0.1-0.2,0.2-0.5,0.2-0.7c0-0.2-0.1-0.5-0.2-0.7c0.1,0,0.2,0.1,0.2,0.1
		c0.1,0,0.2,0.1,0.3,0.1l0.5-0.9l-0.4-0.2L12.2,33z M11.4,34.7c-0.1,0.2-0.2,0.3-0.4,0.4c-0.1,0.1-0.3,0-0.4,0
		c-0.2-0.1-0.3-0.3-0.3-0.5c0-0.2,0-0.5,0.1-0.7l0.4-0.7l0.6,0.3c0.1,0.2,0.2,0.4,0.2,0.6C11.5,34.2,11.5,34.5,11.4,34.7z"/>
	<polygon class="st2" points="13.4,31.2 9,28.2 8.2,29.3 8.6,29.6 9.1,29.1 13,31.8 12.7,32.4 13.1,32.7 14.2,31 13.8,30.7 	"/>
	<path class="st2" d="M16.8,23.6c-0.5-0.5-1-0.8-1.7-0.8c-0.6,0-1.2,0.2-1.7,0.7l-1.2,1.2l-0.4,0.4l0.3,0.3l0.5-0.4l3,3.1l-0.4,0.5
		l0.3,0.3l1.7-1.6c0.5-0.5,0.8-1.1,0.8-1.7c0-0.6-0.2-1.2-0.7-1.7L16.8,23.6z M16.9,27.1l-0.7,0.7l-3-3.1l0.7-0.7
		c0.4-0.4,0.8-0.5,1.2-0.5c0.4,0,0.9,0.2,1.2,0.6l0.5,0.6c0.4,0.4,0.6,0.8,0.6,1.2C17.4,26.4,17.3,26.8,16.9,27.1z"/>
	<polygon class="st2" points="20.3,24.3 18.3,21.4 17.2,22.2 17.4,22.6 18,22.3 19.7,24.7 19.3,25.2 19.6,25.6 21.2,24.4 20.9,24 	
		"/>
	<rect x="16.8" y="20.1" transform="matrix(0.8104 -0.5859 0.5859 0.8104 -8.7437 13.914)" class="st2" width="0.7" height="0.8"/>
	<path class="st2" d="M22.7,18.8l-0.6,0.3l0.2,0.5c-0.2-0.1-0.4-0.2-0.6-0.2c-0.2,0-0.4,0.1-0.7,0.2c-0.4,0.2-0.7,0.6-0.8,1.1
		c-0.1,0.5,0.1,1,0.4,1.6l0,0.1c0.3,0.5,0.6,0.9,1.1,1c0.4,0.2,0.9,0.1,1.3-0.1c0.2-0.1,0.4-0.3,0.5-0.4c0.1-0.2,0.2-0.4,0.2-0.6
		l0.2,0.3c0.2,0.3,0.2,0.6,0.2,0.8c0,0.2-0.2,0.4-0.5,0.6c-0.2,0.1-0.3,0.2-0.5,0.2c-0.2,0-0.4,0.1-0.5,0.1l0.1,0.6
		c0.2,0,0.4,0,0.6-0.1c0.2-0.1,0.4-0.1,0.6-0.2c0.5-0.3,0.8-0.6,0.9-1c0.1-0.4,0-0.8-0.2-1.3L22.7,18.8z M23.3,22.3
		c-0.1,0.2-0.2,0.3-0.4,0.4c-0.3,0.2-0.6,0.2-0.9,0.1s-0.5-0.4-0.7-0.7l0-0.1c-0.2-0.4-0.3-0.8-0.3-1.1c0-0.3,0.2-0.6,0.5-0.8
		c0.2-0.1,0.4-0.2,0.6-0.1c0.2,0,0.4,0.1,0.5,0.2l0.9,1.7C23.5,22,23.4,22.2,23.3,22.3z"/>
	<polygon class="st2" points="26.5,21 25.1,17.8 23.9,18.3 24,18.7 24.7,18.6 25.8,21.3 25.2,21.6 25.4,22.1 27.2,21.3 27.1,20.9 	
		"/>
	<rect x="23.9" y="16.2" transform="matrix(0.9288 -0.3705 0.3705 0.9288 -4.4073 10.1672)" class="st2" width="0.7" height="0.8"/>
	<path class="st2" d="M29.5,20.1c-0.1,0-0.1,0.1-0.2,0.1c-0.1,0-0.2,0-0.3,0c-0.1-0.1-0.2-0.2-0.2-0.4L28,17.4l0.7-0.2l-0.2-0.5
		l-0.7,0.2l-0.3-1l-0.7,0.2l0.3,1l-0.6,0.2l0.2,0.5l0.6-0.2L28,20c0.1,0.4,0.3,0.6,0.5,0.8c0.2,0.1,0.5,0.1,0.8,0.1
		c0.1,0,0.3-0.1,0.4-0.2c0.1-0.1,0.2-0.1,0.3-0.2L29.7,20C29.6,20,29.5,20.1,29.5,20.1z"/>
	<path class="st2" d="M33.6,19.4c0,0,0-0.1,0-0.1c0,0,0-0.1,0-0.2l-0.3-2c-0.1-0.4-0.3-0.8-0.6-0.9c-0.3-0.2-0.7-0.2-1.2-0.2
		c-0.3,0-0.6,0.1-0.8,0.3c-0.2,0.1-0.5,0.3-0.6,0.5l0.1,0.8l0.6-0.1l0-0.4c0.1-0.1,0.2-0.2,0.3-0.2c0.1-0.1,0.3-0.1,0.5-0.1
		c0.3,0,0.5,0,0.7,0.1c0.2,0.1,0.3,0.3,0.3,0.5l0.1,0.5l-0.8,0.1c-0.5,0.1-1,0.3-1.2,0.5c-0.3,0.3-0.4,0.6-0.3,1
		c0.1,0.4,0.2,0.6,0.5,0.8c0.3,0.2,0.6,0.2,1,0.2c0.2,0,0.5-0.1,0.7-0.3c0.2-0.2,0.3-0.3,0.5-0.5c0,0.1,0,0.2,0.1,0.3
		c0,0.1,0.1,0.2,0.1,0.3l1-0.2l-0.1-0.5L33.6,19.4z M32.4,19.3c-0.2,0.1-0.4,0.2-0.6,0.3c-0.2,0-0.4,0-0.5-0.1
		c-0.1-0.1-0.2-0.2-0.2-0.4c0-0.2,0-0.4,0.2-0.6c0.2-0.2,0.4-0.3,0.7-0.3l0.8-0.1l0.1,0.7C32.7,19,32.6,19.2,32.4,19.3z"/>
	<polygon class="st2" points="35.8,19.2 35.5,13.8 34.1,13.9 34.1,14.4 34.8,14.5 35,19.2 34.4,19.4 34.4,19.8 36.4,19.7 36.4,19.3 
			"/>
	<polygon class="st2" points="42.1,19.7 40.2,19.4 40.9,15.1 41.5,15.1 41.6,14.6 41,14.5 40.2,14.4 39.6,14.3 39.5,14.8 40.1,15 
		39.5,19.3 38.8,19.3 38.8,19.8 42.7,20.4 42.9,19.2 42.3,19.1 	"/>
	<polygon class="st2" points="44.4,16.6 44.2,17.1 44.8,17.4 44,20.2 43.4,20.1 43.2,20.6 45.1,21.1 45.3,20.7 44.7,20.4 45.7,17 	
		"/>
	<rect x="45.3" y="15.1" transform="matrix(0.2749 -0.9615 0.9615 0.2749 18.236 55.1923)" class="st2" width="0.8" height="0.7"/>
	<path class="st2" d="M49.9,20.9c0.3-0.6,0.3-1.2,0.2-1.6c-0.1-0.5-0.4-0.8-0.9-1c-0.2-0.1-0.5-0.1-0.7-0.1c-0.2,0-0.4,0.1-0.6,0.2
		l0.9-2.1l-1.3-0.5l-0.2,0.4l0.5,0.3l-2.1,4.9l0.6,0.3l0.3-0.5c0,0.2,0.1,0.4,0.3,0.6c0.1,0.2,0.3,0.3,0.6,0.4
		c0.5,0.2,0.9,0.2,1.3,0C49.3,21.9,49.6,21.5,49.9,20.9L49.9,20.9z M49.2,20.6L49.2,20.6c-0.2,0.5-0.4,0.7-0.7,0.9
		c-0.3,0.2-0.5,0.2-0.9,0c-0.2-0.1-0.4-0.2-0.5-0.4C47.1,21,47,20.8,47,20.6l0.7-1.7c0.2-0.1,0.3-0.2,0.5-0.3c0.2,0,0.4,0,0.6,0.1
		c0.3,0.1,0.5,0.4,0.6,0.7C49.4,19.8,49.3,20.2,49.2,20.6z"/>
	<path class="st2" d="M52.8,21c0.2,0,0.3,0,0.5,0.1l0.4,0.2l0.4-0.5c0,0-0.1-0.1-0.1-0.1c0,0-0.1-0.1-0.1-0.1
		c-0.2-0.1-0.4-0.2-0.6-0.1c-0.2,0-0.4,0.1-0.6,0.2l0.2-0.5l-1.1-0.7l-0.2,0.4l0.5,0.4l-1.5,2.5l-0.6-0.2L49.6,23l1.7,1l0.2-0.4
		l-0.5-0.4l1.2-2C52.5,21.1,52.6,21,52.8,21z"/>
	<path class="st2" d="M55.3,26.2c0,0,0.1-0.1,0.1-0.1l1.2-1.6c0.3-0.3,0.4-0.7,0.3-1.1c-0.1-0.4-0.3-0.7-0.7-1
		c-0.2-0.2-0.5-0.3-0.8-0.4c-0.3-0.1-0.5-0.1-0.8-0.1l-0.5,0.6l0.5,0.4l0.3-0.3c0.1,0,0.3,0,0.4,0.1c0.1,0.1,0.3,0.1,0.4,0.3
		c0.2,0.2,0.3,0.4,0.4,0.6c0,0.2,0,0.4-0.2,0.6l-0.3,0.4L55.2,24c-0.4-0.3-0.8-0.5-1.2-0.6c-0.4,0-0.7,0.1-0.9,0.4
		c-0.2,0.3-0.3,0.6-0.3,0.9c0,0.3,0.2,0.6,0.6,0.9c0.2,0.2,0.4,0.2,0.7,0.3c0.2,0,0.5,0,0.7,0c-0.1,0.1-0.1,0.1-0.1,0.2
		c0,0.1-0.1,0.2-0.1,0.3l0.8,0.6l0.3-0.4l-0.2-0.2C55.3,26.3,55.3,26.2,55.3,26.2z M55.1,25.4c-0.2,0.1-0.4,0.1-0.6,0.1
		c-0.2,0-0.5-0.1-0.6-0.3c-0.2-0.1-0.3-0.3-0.3-0.4c0-0.1,0-0.3,0.1-0.4c0.1-0.2,0.3-0.2,0.5-0.2c0.2,0,0.5,0.1,0.7,0.3l0.6,0.5
		L55.1,25.4z"/>
	<path class="st2" d="M57.3,28.4l-0.4-0.5l1.7-1.6c0.2-0.1,0.3-0.1,0.5,0s0.3,0.1,0.4,0.3l0.3,0.3l0.6-0.4c0,0,0-0.1-0.1-0.1
		c0-0.1-0.1-0.1-0.1-0.1c-0.2-0.2-0.3-0.3-0.5-0.3c-0.2,0-0.4,0-0.7,0l0.4-0.5l-0.9-0.9l-0.3,0.3l0.4,0.5l-2.1,2L55.9,27l-0.3,0.3
		l1.4,1.4L57.3,28.4z"/>
	<path class="st2" d="M63,30.6l0.4-0.3l-1-1.3L62,29.3l0.2,0.4l-2.6,0.8l0,0l0.3-0.4l1.2-1.8l0.3,0.3l0.4-0.3l-1-1.3l-0.4,0.3
		l0.2,0.3l-2,3.2l-0.4,0.1c-0.2,0-0.4,0.1-0.5,0.1c-0.2,0-0.3-0.1-0.4-0.2c0,0-0.1-0.1-0.1-0.2c-0.1-0.1-0.1-0.1-0.1-0.1l-0.5,0.3
		c0,0,0.1,0.1,0.1,0.2c0,0.1,0.1,0.1,0.1,0.2c0.2,0.3,0.4,0.4,0.7,0.5c0.3,0,0.6,0,0.8-0.1l4.3-1.2L63,30.6z"/>
	<path class="st2" d="M63,34c-0.6,0.2-1,0.6-1.2,1.1c-0.2,0.5-0.2,0.9,0,1.5c0.2,0.5,0.6,0.9,1.1,1c0.5,0.1,1,0.1,1.6-0.1l0.1,0
		c0.6-0.2,1-0.6,1.2-1.1c0.2-0.5,0.2-1,0-1.5c-0.2-0.5-0.6-0.9-1.1-1C64.2,33.7,63.7,33.7,63,34L63,34z M63.4,34.6
		c0.4-0.2,0.8-0.2,1.1-0.2c0.3,0.1,0.6,0.2,0.7,0.6c0.1,0.3,0.1,0.6-0.1,0.9c-0.2,0.3-0.5,0.5-0.9,0.7l-0.1,0
		c-0.4,0.2-0.8,0.2-1.1,0.2c-0.3-0.1-0.6-0.2-0.7-0.6c-0.1-0.3-0.1-0.6,0.1-0.9C62.6,35.1,62.9,34.8,63.4,34.6L63.4,34.6z"/>
	<path class="st2" d="M63.5,39.1l-0.3-0.6l-0.5,0.1l0.6,1.9l0.5-0.1l-0.1-0.6l2.9-0.8l0.2,0.8l0.5-0.2l-0.2-0.8l0.5-0.1
		c0.2-0.1,0.4-0.1,0.6,0c0.2,0.1,0.3,0.2,0.3,0.4c0,0.1,0,0.1,0,0.2c0,0.1,0,0.1,0,0.2l0.6-0.1c0-0.1,0-0.2,0-0.3
		c0-0.1,0-0.2-0.1-0.3c-0.1-0.4-0.3-0.7-0.6-0.8c-0.3-0.2-0.7-0.2-1.1,0l-0.5,0.1l-0.2-0.6l-0.5,0.2l0.2,0.6L63.5,39.1z"/>
	<polygon class="st2" points="68.9,43.2 64.5,43.7 64.3,43.1 63.9,43.2 64.1,45.1 64.6,45.1 64.6,44.5 68.9,43.9 69.1,44.5 
		69.6,44.5 69.4,42.5 68.9,42.6 	"/>
	<path class="st2" d="M66.7,48.8l-2,0l-0.1-0.6l-0.5,0l0,2l0.5,0l0.1-0.6l2,0c0.5,0,0.9-0.1,1.2-0.3c0.3-0.2,0.4-0.6,0.4-1
		c0-0.3-0.1-0.5-0.2-0.7c-0.1-0.2-0.3-0.4-0.5-0.5l0.6,0l0-1.3l-0.5,0l-0.1,0.6l-2.9,0l-0.1-0.6l-0.5,0l0,2l0.5,0l0.1-0.6l2.4,0
		c0.2,0.1,0.3,0.2,0.4,0.4c0.1,0.2,0.2,0.4,0.1,0.6c0,0.3-0.1,0.5-0.2,0.7S67.1,48.8,66.7,48.8z"/>
	<path class="st2" d="M68.8,54.1l-1.7-0.3c0.2-0.1,0.3-0.2,0.5-0.4c0.1-0.2,0.2-0.4,0.2-0.6c0.1-0.5,0-0.9-0.4-1.3
		c-0.3-0.4-0.8-0.6-1.5-0.7l-0.1,0c-0.6-0.1-1.1-0.1-1.5,0.2c-0.4,0.2-0.7,0.6-0.7,1.1c0,0.3,0,0.5,0,0.7c0.1,0.2,0.2,0.4,0.3,0.6
		l-0.5,0l-0.2,1.3l0.5,0.1L64,54l5.3,1l0.1-0.7l0.1-0.6l-0.5-0.1L68.8,54.1z M66.6,53.7l-1.9-0.3c-0.2-0.1-0.3-0.3-0.4-0.4
		c-0.1-0.2-0.1-0.4,0-0.6c0.1-0.3,0.2-0.6,0.5-0.7c0.3-0.1,0.6-0.1,1-0.1l0.1,0c0.5,0.1,0.8,0.2,1.1,0.5c0.3,0.2,0.4,0.5,0.3,0.9
		c0,0.2-0.1,0.4-0.2,0.5C66.9,53.5,66.7,53.6,66.6,53.7z"/>
	<polygon class="st2" points="66.3,56.6 63.5,55.7 63.6,55.1 63.2,54.9 62.5,56.8 63,57 63.3,56.4 66.7,57.5 67.1,56.2 66.6,56.1 	
		"/>
	
		<rect x="67.8" y="57.2" transform="matrix(0.3045 -0.9525 0.9525 0.3045 -7.4593 104.9534)" class="st2" width="0.7" height="0.8"/>
	<path class="st2" d="M65,58.7l-0.2,0.5l0.4,0.3c0,0.1,0.1,0.2,0,0.4c0,0.2-0.1,0.3-0.1,0.5c-0.1,0.2-0.3,0.4-0.5,0.5
		c-0.2,0.1-0.4,0.1-0.6,0l-0.4-0.2l0.3-0.7c0.2-0.5,0.3-0.9,0.3-1.3c-0.1-0.4-0.3-0.6-0.6-0.8c-0.3-0.2-0.7-0.2-0.9-0.1
		c-0.3,0.1-0.5,0.4-0.7,0.8c-0.1,0.2-0.1,0.5-0.1,0.7c0,0.2,0.1,0.5,0.2,0.7c-0.1,0-0.2-0.1-0.3-0.1c-0.1,0-0.2-0.1-0.3-0.1
		l-0.4,0.9l0.4,0.2l0.2-0.3c0,0,0.1,0,0.1,0.1c0,0,0.1,0,0.1,0.1l1.8,0.8c0.4,0.2,0.8,0.2,1.1,0c0.3-0.2,0.6-0.5,0.8-0.9
		c0.1-0.3,0.2-0.6,0.2-0.8c0-0.3,0-0.5,0-0.8L65,58.7z M63,60.4l-0.6-0.3c-0.1-0.2-0.2-0.3-0.2-0.6c0-0.2,0-0.5,0.1-0.7
		c0.1-0.2,0.2-0.3,0.3-0.4c0.1-0.1,0.3-0.1,0.4,0c0.2,0.1,0.3,0.2,0.4,0.5c0.1,0.2,0,0.5-0.1,0.8L63,60.4z"/>
	<circle class="st2" cx="61" cy="65.1" r="0.9"/>
	<circle class="st2" cx="11.6" cy="65.4" r="0.9"/>
</g>
</svg>
